<?xml version="1.0" standalone="no"?>
<!DOCTYPE svg PUBLIC "-//W3C//DTD SVG 20010904//EN"
 "http://www.w3.org/TR/2001/REC-SVG-20010904/DTD/svg10.dtd">
<svg version="1.0" xmlns="http://www.w3.org/2000/svg"
 width="702.000000pt" height="702.000000pt" viewBox="0 0 702.000000 702.000000"
 preserveAspectRatio="xMidYMid meet">
<metadata>
Created by potrace 1.14, written by Peter Selinger 2001-2017
</metadata>
<g transform="translate(0.000000,702.000000) scale(0.100000,-0.100000)"
fill="#000000" stroke="none">
<path d="M2361 4233 c-51 -25 -73 -68 -67 -128 7 -66 45 -105 109 -112 64 -7
112 11 138 53 73 119 -53 250 -180 187z"/>
<path d="M2683 4235 c-43 -18 -73 -69 -73 -123 0 -34 6 -49 34 -80 33 -35 37
-37 98 -37 94 0 138 42 138 129 -1 95 -103 152 -197 111z"/>
<path d="M1708 4155 c-2 -2 -19 -4 -38 -6 -19 -2 -40 -6 -45 -10 -16 -12 -12
-627 5 -704 14 -67 47 -136 85 -178 38 -43 130 -95 189 -107 28 -6 62 -13 76
-16 49 -10 1263 -5 1320 6 157 30 269 141 314 310 10 37 14 95 12 180 -3 143
-18 192 -69 231 -29 21 -42 23 -124 23 -51 -1 -98 -6 -105 -12 -10 -8 -12 -30
-8 -80 9 -127 4 -245 -14 -297 -35 -104 -72 -124 -235 -128 -67 -2 -123 -2
-125 0 -2 2 8 31 22 65 21 54 24 73 20 143 -10 161 -102 271 -266 317 -75 20
-161 23 -247 7 -196 -36 -317 -199 -293 -395 4 -35 14 -77 23 -94 8 -16 14
-33 13 -37 -4 -11 -156 -5 -194 7 -37 12 -78 54 -95 95 -8 21 -12 120 -13 315
-2 313 -4 324 -65 350 -25 10 -136 22 -143 15z m934 -515 c80 -62 57 -215 -40
-272 -27 -16 -30 -16 -59 4 -94 68 -109 219 -25 270 37 24 93 23 124 -2z"/>
<path d="M3846 4152 c-2 -2 -17 -4 -32 -5 l-29 -2 0 -330 c0 -357 3 -392 38
-469 50 -108 143 -178 266 -201 14 -3 37 -7 51 -10 33 -7 297 -8 308 -1 5 3
23 8 39 11 37 6 110 37 137 57 17 13 24 11 74 -18 135 -81 360 -72 460 19 14
14 26 18 30 11 12 -17 74 -51 125 -68 73 -25 208 -23 287 4 36 12 76 30 89 39
23 17 26 17 73 -6 96 -46 281 -69 375 -47 36 8 123 55 123 65 0 5 24 0 53 -10
127 -47 189 -56 377 -55 175 1 240 17 296 75 28 29 29 35 29 117 0 68 -7 105
-29 172 -70 211 -147 329 -251 383 -55 28 -186 33 -251 9 -97 -36 -190 -145
-324 -379 -39 -68 -73 -116 -90 -127 -61 -35 -239 -10 -226 32 24 73 26 276 6
354 -14 49 -56 96 -97 107 -34 10 -147 7 -181 -3 -19 -6 -20 -16 -16 -171 4
-195 -8 -252 -61 -302 -29 -27 -43 -33 -81 -33 -43 0 -82 13 -95 32 -3 5 0 37
6 72 16 84 11 205 -10 246 -24 46 -81 69 -164 65 -36 -1 -78 -6 -92 -10 l-26
-7 1 -106 c1 -59 -2 -129 -7 -157 -10 -57 -47 -111 -85 -127 -63 -24 -159 -1
-155 37 1 11 5 38 9 60 4 22 7 76 7 120 1 100 -19 146 -71 171 -39 18 -129 23
-193 11 l-37 -7 1 -113 c2 -132 -13 -193 -56 -237 -42 -43 -64 -50 -160 -50
-96 0 -148 23 -181 80 -20 33 -21 55 -26 337 -5 300 -5 302 -29 327 -13 14
-38 28 -55 32 -33 7 -145 12 -150 6z m2777 -504 c41 -31 113 -229 95 -261 -13
-25 -170 -16 -265 14 l-33 10 21 40 c53 104 130 209 154 209 6 0 19 -6 28 -12z"/>
<path d="M502 4035 c-44 -19 -69 -51 -76 -98 -7 -43 10 -92 43 -121 27 -25
125 -33 160 -14 83 45 88 171 8 223 -35 22 -97 27 -135 10z"/>
<path d="M839 4041 c-47 -15 -66 -30 -83 -66 -37 -77 9 -171 91 -184 96 -17
163 35 163 127 0 62 -32 106 -88 122 -42 11 -47 11 -83 1z"/>
<path d="M1174 3842 c-14 -5 -20 -13 -17 -27 2 -11 4 -67 5 -125 3 -136 -12
-191 -68 -246 -36 -36 -52 -44 -118 -59 -84 -19 -268 -25 -410 -14 -191 15
-256 92 -257 305 0 82 -1 85 -26 95 -14 5 -57 10 -94 10 -137 1 -184 -50 -182
-201 3 -240 132 -387 383 -436 77 -16 555 -22 630 -10 110 19 152 31 215 61
153 73 224 194 230 396 5 140 -18 215 -76 245 -29 14 -173 18 -215 6z"/>
<path d="M3194 3020 c-26 -10 -74 -66 -75 -88 -5 -76 28 -133 86 -152 53 -18
126 -2 160 34 53 56 33 166 -36 202 -30 15 -102 18 -135 4z"/>
</g>
</svg>
